<?xml version="1.0" encoding="UTF-8" standalone="no"?>
<svg width="32px" height="32px" viewBox="0 0 32 32" version="1.1" xmlns="http://www.w3.org/2000/svg" xmlns:xlink="http://www.w3.org/1999/xlink">
    <defs></defs>
    <g id="Page-1" stroke="none" stroke-width="1" fill="none" fill-rule="evenodd">
        <g id="ico-delete">
            <circle id="Oval-1" stroke="#CF5C60" cx="16" cy="16" r="16"></circle>
            <path d="M15,15 L15,9.00087166 C15,8.44463086 15.4477153,8 16,8 C16.5561352,8 17,8.4481055 17,9.00087166 L17,15 L22.9991283,15 C23.5553691,15 24,15.4477153 24,16 C24,16.5561352 23.5518945,17 22.9991283,17 L17,17 L17,22.9991283 C17,23.5553691 16.5522847,24 16,24 C15.4438648,24 15,23.5518945 15,22.9991283 L15,17 L9.00087166,17 C8.44463086,17 8,16.5522847 8,16 C8,15.4438648 8.4481055,15 9.00087166,15 L15,15 Z" id="Rectangle-1" fill="#CF5C60" transform="translate(16.000000, 16.000000) rotate(-45.000000) translate(-16.000000, -16.000000) "></path>
        </g>
    </g>
</svg>